# xmcd
#
# Track frame offsets:
#	150
#	15947
#	37719
#	59374
#	79576
#	103893
#	125236
#	149554
#	170499
#	196954
#	220060
#	242677
#	267609
#	284501
#
# Disc length: 4000
#
# Revision: 2
# Processed by: cddbd v1.5.1PL0 Copyright (c) Steve Scherf et al.
# Submitted via: audiograbber 1.82.02
# Normalized: r1:DSETVAR1
#
DISCID=ce0f9e0e
DTITLE=Various Artist - The Greatest Rock Ballads vol.2
DYEAR=2003
DGENRE=Ballad
TTITLE0=Mr. Big - To Be With You
TTITLE1=Foreigner - Waiting For A Girl Like You
TTITLE2=Alannah Myles - Black Velvet
TTITLE3=R.E.M. - Drive
TTITLE4=Phil Collins - Another Day In Paradise
TTITLE5=Chris Rea - Gone Fishing
TTITLE6=Joe Cocker - A Whiter Shade Of Pale
TTITLE7=Bonnie Tyler - I Put A Spell On You
TTITLE8=Scorpions - Does Anyone Know
TTITLE9=Chicago - Hard To Say I`m Sorry - Get Away
TTITLE10=Prince - Nothing Compares 2 U
TTITLE11=Dream Theater - Through Her Eyes
TTITLE12=Alice Cooper - I Never Cry
TTITLE13=Simply Red - If You Don`t Know Me By Now
EXTD=Encoded by: djeko (MPG Team®) www.maxmovie.hit.bg\nOrpheus Music Ltd., under exlusive license from Warner Music Austria
EXTT0=
EXTT1=
EXTT2=
EXTT3=
EXTT4=
EXTT5=
EXTT6=
EXTT7=
EXTT8=
EXTT9=
EXTT10=
EXTT11=
EXTT12=
EXTT13=
PLAYORDER=
